<svg
  width="256.06mm"
  height="136.24mm"
  version="1.1"
  viewBox="0 0 256.06 136.24"
  xmlns="http://www.w3.org/2000/svg"
  xmlns:xlink="http://www.w3.org/1999/xlink"
>
 <defs>
  <linearGradient
      id="b"
      x1="303.37"
      x2="1259.3"
      y1="286.76"
      y2="794.77"
      gradientTransform="matrix(.26458 0 0 .26458 -112.08 11.743)"
      gradientUnits="userSpaceOnUse"
    >
   <stop stop-color="#4cfb7e" stop-opacity=".98431" offset="0" />
   <stop stop-color="#00fee0" stop-opacity=".99608" offset="1" />
  </linearGradient>
  <linearGradient
      id="a"
      x1="145.08"
      x2="66.369"
      y1="155.72"
      y2="155.72"
      gradientTransform="matrix(1.5734 0 0 .9934 -74.618 1.9578)"
      gradientUnits="userSpaceOnUse"
    >
   <stop stop-color="#08fdd6" stop-opacity=".99608" offset="0" />
   <stop stop-color="#40fc8d" stop-opacity="0" offset="1" />
  </linearGradient>
 </defs>
 <g transform="translate(35.086 -85.359)">
  <path
      d="m27.979 95.948 124.41-0.0064-56.067 35.277-8.8824 26.463 17.121 26.855 48.836 34.414-125.45 4e-3z"
      fill="url(#a)"
      opacity=".5"
      stroke-width=".34058"
    />
  <path
      d="m139.07 220.26c-1.2158-0.25124-4.0362-0.0287-6.801-0.11699-37.009-1.1823-104.84-1.1709-104.31-1.1998 16.447-0.89655 67.181-1.7594 83.545-2.5698 7.9343-0.39192 12.691-0.50187 12.661-0.9729-9e-3 -0.14552-1.279-0.67336-2.6974-1.3803-2.244-1.1184-6.2721-3.6037-9.4094-5.7973-0.37268-0.26056-3.431-0.12746-3.7859-0.20593-0.0934-0.0207-79.277-0.27087-82.252-0.24007-7.449 0.0771-25.402 0.33339-24.106 0.25944 11.612-0.66276 80.824-4.5224 102.59-5.4172 0.53605-0.0224 0.914-0.0228 0.089-0.81635-0.74283-0.71449-2.3956-2.4428-3.7959-4.1173-0.78732-0.94147-1.5337-1.9096-1.8409-2.0465-0.42905-0.19115-7.3229-0.43315-13.408-0.30177-18.796 0.40577-20.008 0.41035-36.483 0.63513-12.038 0.16423-10.434 0.50202-12.331-0.27436-1.774-0.72601-3.3335-2.6733-3.5598-4.7754-0.22419-2.0829 0.87501-4.1042 2.4741-5.0908 1.4615-0.9017 2.1982-0.92662 7.199-1.1489 2.184-0.0971 47.053-2.0799 47.517-2.4647 0.46659-0.38724 0.1642-0.92051-0.53029-2.4706-0.39892-0.89041-0.55656-1.3369-1.1041-1.3372-45.517-0.0186-46.944-0.0719-101.56-0.76737-39.35-0.5011 99.737-4.3857 99.865-4.4206 0.51204-0.13929 0.18775-0.89485-0.20742-2.426-0.59595-2.3092-0.93952-4.1661-1.0375-4.6344-0.18292-0.87447-0.83663-1.0714-4.5462-1.012-3.1365 0.0502-24.304 1.1021-62.243 1.8091-9.0255 0.16819-8.1672 0.31747-10.319-0.53608-1.578-0.62603-2.9583-2.8414-3.0225-5.1843-0.06718-2.4527 1.6202-4.9238 3.846-5.4965 2.1628-0.55646 6.92-0.63771 14.949-0.98866 25.075-1.096 25.788-1.0802 45.033-2.0262 1.7391-0.0855 10.941-0.70939 14.365-0.95492 0.83379-0.0598 0.81833-0.6316 0.89027-2.0225 0.04435-0.85746 0.08297-1.0371 0.04802-1.5796-0.02823-0.43822-0.76417-0.56925-1.8496-0.64813-39.144-2.8449-78.287 0.0536-118.02-0.12545-0.10656-5.3e-4 2.9295-0.29045 6.35-0.43623 37.306-1.59 75.787-3.7253 113.23-5.8201 1.424-0.0797 1.3422-0.86751 1.5579-1.8774 0.23115-1.0818 0.52951-2.4566 0.78762-3.347 0.69431-2.3951-4.4192-1.741-10.872-1.5568-3.0919 0.0883-7.8838 0.27633-10.649 0.41792-11.684 0.59832-65.665 1.9513-67.733 1.6976-1.7963-0.22034-3.35-1.1751-4.3369-2.6652-2.1645-3.2678-0.05084-8.2248 3.6912-8.6567 0.64619-0.0746 3.9167-0.20671 7.2603-0.42504 26.828-1.8326 58.056-3.5662 84.801-6.4047 1.0186-0.13189 4.4534-0.54078 5.1756-0.60421 0.6923-0.0608 0.98189-0.86535 1.4628-1.5544 0.90407-1.2955 1.5907-2.274 1.4872-2.3732-0.4775-0.4581-118.27-0.46123-101.26-1.5801 35.44-2.3316 99.424-6.7594 106.03-7.3919 2.8305-0.27114 4.2179-1.1938 5.4808-2.2705 0.86557-0.73795 2.1282-1.7641 2.557-2.152 0.1483-0.13416 1.9556-1.6017 3.7951-2.8798 0.43423-0.30169 1.1766-0.82459 0.81701-0.86306-6.0945-0.65219-88.005-0.53459-87.456-0.65897 25.737-1.428 51.506-2.3984 77.258-3.5632 13.379-0.60513 13.705-0.63546 16.68-1.5503 11.823-3.6364 26.585-5.6936 32.222-5.5099 35.276 1.1498 61.176 25.518 66.654 56.336 1.2833 7.2185 1.0622 15.418 1.0284 40.374-0.0398 29.409 0.01 37.673-0.24226 37.762-0.51845 0.18321-5.7722 0.26435-14.742 0.19367-4.1672-0.0328-7.9844-0.17178-8.1056-0.33671-0.12999-0.17686-0.18841-3.5344-0.14809-7.3398 0.0444-4.186-0.0206-7.8847-0.14446-8.2194-0.21858-0.59086-0.26834-0.56767-1.7126 0.79759-9.6032 8.9965-28.717 17.042-43.361 16.652-3.9153-0.10415-7.7465-0.16069-13.413-1.3317zm13.961-22.1c28.346-0.21547 44.855-24.064 44.442-44.289-0.56698-27.77-22.646-45.109-43.816-45.11-22.18-5.3e-4 -45.596 16.982-45.474 44.637 0.13377 30.366 24.549 44.916 44.848 44.762z"
      fill="url(#b)"
      stroke-width=".26458"
    />
  <path
      d="m197.45 204.46c-4e-3 -0.28643-0.33457-0.44262-0.54468-0.25749-10.015 8.543-21.361 14.013-34.037 16.409-17.558 3.3175-36.7-1.9212-51.04-12.607-20.875-15.558-30.699-41.494-26.065-67.113 5.4863-30.293 31.541-53.684 62.636-55.437 13.442-0.75261 26.094 2.1952 37.958 8.8434 20.509 11.487 34.472 34.195 34.522 58.15 0.0726 34.779 0.0759 57.038 0.01 66.776 0 0.23517-0.17547 0.63341-0.40717 0.64974l-9.6384 0.19008-9.6571-0.1831c-0.0684 1e-5 -1.1896-0.12239-1.7677-0.39963-0.69025-0.33106-1.1142-0.73571-1.3318-1.3946-0.39343-1.1916-0.34131-2.5191-0.37099-2.6954zm-0.10891-51.04c0-24.672-20.001-44.511-44.672-44.672-22.881-0.14928-44.672 20-44.672 44.672-2e-5 24.672 20 44.672 44.672 44.672 24.672 0 44.672-20.001 44.672-44.672z"
      display="none"
      fill="#0d1a40"
      opacity=".353"
      stroke-width=".9903"
    />
 </g>
</svg>
