<svg version="1.1" viewBox="0 0 1400 128" xmlns="http://www.w3.org/2000/svg">
 <defs>
  <linearGradient
      id="c"
      x1="145.08"
      x2="66.369"
      y1="155.72"
      y2="155.72"
      gradientTransform="matrix(.99955 0 0 .63657 -23.489 -13.505)"
      gradientUnits="userSpaceOnUse"
    >
   <stop stop-color="#08fdd6" stop-opacity=".996" offset="0" />
   <stop stop-color="#40fc8d" stop-opacity="0" offset="1" />
  </linearGradient>
  <linearGradient
      id="d"
      x1="1255.3"
      x2="677.09"
      y1="780.8"
      y2="315.58"
      gradientTransform="matrix(.16809 0 0 .16955 -48.728 -7.2355)"
      gradientUnits="userSpaceOnUse"
    >
   <stop stop-color="#75fbaf" offset="0" />
   <stop stop-color="#00fee0" stop-opacity=".996" offset="1" />
  </linearGradient>
  <linearGradient
      id="a"
      x1="172.23"
      x2="212.14"
      y1="107.38"
      y2="-43.944"
      gradientTransform="matrix(1.3497 0 0 1.3497 -.34088 2.1029)"
      gradientUnits="userSpaceOnUse"
    >
   <stop stop-color="#75fbaf" offset="0" />
   <stop stop-color="#00fee0" stop-opacity=".996" offset="1" />
  </linearGradient>
  <linearGradient
      id="b"
      x1="459.01"
      x2="1022.1"
      y1="47.689"
      y2="47.689"
      gradientTransform="matrix(1.4408 0 0 1.4408 -72.624 -4.7124)"
      gradientUnits="userSpaceOnUse"
    >
   <stop stop-color="#cccbcb" offset="0" />
   <stop stop-color="#686565" offset="1" />
  </linearGradient>
 </defs>
 <text
    x="172.68011"
    y="126.10117"
    fill="url(#a)"
    font-family="Arial"
    font-size="161.96px"
    font-weight="bold"
    stroke-width=".89483"
    xml:space="preserve"
  >mber</text>
 <text
    x="581.61859"
    y="125.87831"
    fill="url(#b)"
    font-family="Arial"
    font-size="172.9px"
    font-style="italic"
    font-weight="bold"
    stroke-width=".95525"
    xml:space="preserve"
  >EXPRESS</text>
 <path
    d="m41.691 46.724 79.038-4e-3 -35.619 22.606-5.643 16.957 10.877 17.21 31.025 22.052-79.695 3e-3z"
    fill="url(#c)"
    opacity=".5"
    stroke-width="1.3497"
  />
 <path
    d="m110.82 126.38c-0.77201-0.16196-2.5644-0.0189-4.3203-0.0756-23.511-0.75582-66.606-0.74907-66.27-0.76931 10.448-0.57361 42.681-1.127 53.076-1.6466 5.0397-0.24969 8.0616-0.32122 8.044-0.6222-7e-3 -0.0945-0.81385-0.43189-1.7141-0.88538-1.4252-0.71533-3.9842-2.3079-5.979-3.7143-0.23619-0.16736-2.1784-0.081-2.4038-0.13226-0.05939-0.0135-50.364-0.17276-52.254-0.15387-4.7319 0.0499-16.138 0.21325-15.313 0.16601 7.3773-0.42379 51.347-2.8977 65.173-3.4714 0.34012-0.0135 0.58036-0.0135 0.05669-0.52232-0.47238-0.45889-1.5224-1.5656-2.4119-2.6386-0.49938-0.6033-0.97446-1.2242-1.1702-1.3119-0.27263-0.12147-4.651-0.27668-8.5164-0.193-11.942 0.26049-12.713 0.26319-23.179 0.4076-7.6472 0.10528-6.6282 0.32122-7.8335-0.17546-1.127-0.46563-2.119-1.7141-2.262-3.061-0.14172-1.3348 0.55606-2.6305 1.5724-3.2622 0.92857-0.57766 1.3969-0.59386 4.574-0.73557 1.3875-0.0634 29.892-1.3335 30.188-1.5791 0.29693-0.24968 0.10392-0.59115-0.33742-1.5845-0.25374-0.56956-0.35361-0.85569-0.70183-0.85704-28.917-0.0108-29.822-0.0459-64.517-0.49128-24.999-0.32122 63.362-2.81 63.443-2.833 0.32527-0.08908 0.12012-0.57361-0.13092-1.5548-0.37791-1.4792-0.5979-2.6696-0.65999-2.9693-0.11607-0.56011-0.53177-0.68698-2.8883-0.64784-1.9921 0.03104-15.44 0.70588-39.543 1.1594-5.7334 0.10797-5.1881 0.20245-6.5553-0.34417-1.0015-0.40085-1.8787-1.8221-1.9192-3.3215-0.04319-1.5724 1.0284-3.1555 2.4429-3.5226 1.374-0.35631 4.3959-0.40895 9.4963-0.63434 15.93-0.70183 16.382-0.69103 28.61-1.297 1.1067-0.05399 6.9508-0.45484 9.1265-0.61275 0.53042-0.03779 0.51962-0.4049 0.56686-1.2957 0.02699-0.54932 0.05129-0.66404 0.02969-1.0123-0.01754-0.28073-0.48588-0.36441-1.1742-0.4157-24.869-1.8221-49.735 0.03509-74.977-0.08098-0.067484 0 1.8625-0.1849 4.0355-0.27803 23.7-1.019 48.145-2.3876 71.935-3.7305 0.90428-0.04994 0.85299-0.55471 0.99066-1.2012 0.14576-0.69508 0.33607-1.5751 0.49938-2.146 0.44134-1.5346-2.8073-1.1162-6.9063-0.99876-1.9651 0.05804-5.0086 0.17816-6.7659 0.26993-7.4232 0.38196-41.717 1.2498-43.03 1.0865a3.8196 3.8196 0 0 1-2.7547-1.7073c-1.3753-2.0947-0.03239-5.2705 2.3444-5.5471 0.41165-0.04859 2.4888-0.13227 4.6132-0.27263 17.044-1.1742 36.882-2.285 53.873-4.103 0.64784-0.08638 2.8289-0.34822 3.2878-0.3887 0.43999-0.03914 0.62355-0.55336 0.92857-0.99606 0.57496-0.83005 1.0123-1.4576 0.94477-1.5211-0.30233-0.29288-75.135-0.29558-64.331-1.0123 22.515-1.4941 63.162-4.3324 67.358-4.7373 1.7991-0.17276 2.6804-0.76391 3.4821-1.4536 0.55067-0.47238 1.3524-1.131 1.625-1.3794 0.09448-0.08638 1.2417-1.0257 2.4105-1.845 0.27533-0.19435 0.74772-0.52907 0.51962-0.55336-3.8736-0.4184-55.909-0.34282-55.559-0.42245 16.35-0.91508 32.721-1.5373 49.081-2.2836 8.4989-0.38736 8.7054-0.40625 10.595-0.99336 7.5123-2.3295 16.89-3.6482 20.472-3.5307 22.41 0.73692 38.864 16.353 42.345 36.101 0.81521 4.6253 0.67484 9.8796 0.65324 25.873-0.0256 18.844 5e-3 24.14-0.15386 24.197-0.32932 0.11743-3.667 0.17006-9.3667 0.12417-2.6454-0.0202-5.0721-0.10932-5.149-0.21594-0.081-0.11338-0.11877-2.2648-0.0945-4.7036 0.0283-2.6818-0.0135-5.0518-0.0904-5.2664-0.13901-0.37791-0.1714-0.36441-1.0878 0.51153-6.1005 5.7644-18.243 10.92-27.547 10.67-2.4874-0.0675-4.9222-0.10257-8.5218-0.85299zm8.8687-14.162c18.009-0.13767 28.496-15.42 28.235-28.381-0.36171-17.795-14.387-28.906-27.837-28.906-14.091 0-28.967 10.882-28.89 28.604 0.08503 19.458 15.597 28.783 28.492 28.685z"
    fill="url(#d)"
    stroke-width="1.3497"
  />
</svg>
